<svg xmlns="http://www.w3.org/2000/svg">
    <symbol id="home" viewBox="0 0 16 16">
        <path d="M6.65625 13.3438H3.34375V8H1.34375L8 2L14.6562 8H12.6562V13.3438H9.34375V9.34375H6.65625V13.3438Z"
              fill="currentColor"/>
    </symbol>
    <symbol id="chat" viewBox="0 0 16 16">
        <path
                d="M12 5.34375V4H4V5.34375H12ZM9.34375 9.34375V8H4V9.34375H9.34375ZM4 6V7.34375H12V6H4ZM13.3438 1.34375C13.6979 1.34375 14 1.47917 14.25 1.75C14.5208 2 14.6562 2.30208 14.6562 2.65625V10.6562C14.6562 11.0104 14.5208 11.3229 14.25 11.5938C14 11.8646 13.6979 12 13.3438 12H4L1.34375 14.6562V2.65625C1.34375 2.30208 1.46875 2 1.71875 1.75C1.98958 1.47917 2.30208 1.34375 2.65625 1.34375H13.3438Z"
                fill="currentColor"/>
    </symbol>
    <symbol id="search" viewBox="0 0 16 16">
        <path
                d="M4.21875 8.46875C4.80208 9.05208 5.51042 9.34375 6.34375 9.34375C7.17708 9.34375 7.88542 9.05208 8.46875 8.46875C9.05208 7.88542 9.34375 7.17708 9.34375 6.34375C9.34375 5.51042 9.05208 4.80208 8.46875 4.21875C7.88542 3.63542 7.17708 3.34375 6.34375 3.34375C5.51042 3.34375 4.80208 3.63542 4.21875 4.21875C3.63542 4.80208 3.34375 5.51042 3.34375 6.34375C3.34375 7.17708 3.63542 7.88542 4.21875 8.46875ZM10.3438 9.34375L13.6562 12.6562L12.6562 13.6562L9.34375 10.3438V9.8125L9.15625 9.625C8.36458 10.3125 7.42708 10.6562 6.34375 10.6562C5.13542 10.6562 4.10417 10.2396 3.25 9.40625C2.41667 8.57292 2 7.55208 2 6.34375C2 5.13542 2.41667 4.11458 3.25 3.28125C4.10417 2.42708 5.13542 2 6.34375 2C7.55208 2 8.57292 2.42708 9.40625 3.28125C10.2396 4.11458 10.6562 5.13542 10.6562 6.34375C10.6562 6.78125 10.5521 7.28125 10.3438 7.84375C10.1354 8.38542 9.89583 8.82292 9.625 9.15625L9.8125 9.34375H10.3438Z"
                fill="currentColor"/>
    </symbol>
    <symbol id="arrow" viewBox="0 0 16 16">
        <path d="M5.22266 11.4453L8.66797 8L5.22266 4.55469L6.27734 3.5L10.7773 8L6.27734 12.5L5.22266 11.4453Z"
              fill="currentColor"/>
    </symbol>
    <symbol id="arrow-link" viewBox="0 0 16 16">
        <path d="M6 3.34375H12.6562V10H11.3438V5.59375L3.59375 13.3438L2.65625 12.4062L10.4062 4.65625H6V3.34375Z"
              fill="currentColor"/>
    </symbol>
    <symbol id="settings" viewBox="0 0 16 16">
        <g clip-path="url(#clip0_57095_91)">
            <path
                    d="M5.34342 8.65625C5.80175 9.11458 6.35384 9.34375 6.99967 9.34375C7.6455 9.34375 8.19759 9.11458 8.65592 8.65625C9.11425 8.19792 9.34342 7.64583 9.34342 7C9.34342 6.35417 9.11425 5.80208 8.65592 5.34375C8.19759 4.88542 7.6455 4.65625 6.99967 4.65625C6.35384 4.65625 5.80175 4.88542 5.34342 5.34375C4.88509 5.80208 4.65592 6.35417 4.65592 7C4.65592 7.64583 4.88509 8.19792 5.34342 8.65625ZM11.9685 7.65625L13.3747 8.75C13.5205 8.85417 13.5414 9 13.4372 9.1875L12.0935 11.5C12.0101 11.6458 11.8747 11.6875 11.6872 11.625L10.0309 10.9688C9.59342 11.2812 9.21842 11.5 8.90592 11.625L8.65592 13.375C8.61425 13.5625 8.51009 13.6562 8.34342 13.6562H5.65592C5.48925 13.6562 5.38509 13.5625 5.34342 13.375L5.09342 11.625C4.69759 11.4583 4.32259 11.2396 3.96842 10.9688L2.31217 11.625C2.12467 11.6875 1.98925 11.6458 1.90592 11.5L0.562175 9.1875C0.458008 9 0.478842 8.85417 0.624675 8.75L2.03092 7.65625C2.01009 7.51042 1.99967 7.29167 1.99967 7C1.99967 6.70833 2.01009 6.48958 2.03092 6.34375L0.624675 5.25C0.478842 5.14583 0.458008 5 0.562175 4.8125L1.90592 2.5C1.98925 2.35417 2.12467 2.3125 2.31217 2.375L3.96842 3.03125C4.40592 2.71875 4.78092 2.5 5.09342 2.375L5.34342 0.625C5.38509 0.4375 5.48925 0.34375 5.65592 0.34375H8.34342C8.51009 0.34375 8.61425 0.4375 8.65592 0.625L8.90592 2.375C9.30175 2.54167 9.67675 2.76042 10.0309 3.03125L11.6872 2.375C11.8747 2.3125 12.0101 2.35417 12.0935 2.5L13.4372 4.8125C13.5414 5 13.5205 5.14583 13.3747 5.25L11.9685 6.34375C11.9893 6.48958 11.9997 6.70833 11.9997 7C11.9997 7.29167 11.9893 7.51042 11.9685 7.65625Z"
                    fill="currentColor"/>
        </g>
        <defs>
            <clipPath id="clip0_57095_91">
                <rect width="14" height="14" fill="currentColor"/>
            </clipPath>
        </defs>
    </symbol>
    <symbol id="trash" viewBox="0 0 14 14">
        <path
                d="M10.3438 2.65625H12.6562V4H3.34375V2.65625H5.65625L6.34375 2H9.65625L10.3438 2.65625ZM5.34375 6V12.6562H10.6562V6H5.34375ZM4 12.6562V4.65625H12V12.6562C12 13.0104 11.8646 13.3229 11.5938 13.5938C11.3229 13.8646 11.0104 14 10.6562 14H5.34375C4.98958 14 4.67708 13.8646 4.40625 13.5938C4.13542 13.3229 4 13.0104 4 12.6562Z"
                fill="currentColor"/>
    </symbol>
    <symbol id="logout" viewBox="0 0 16 16">
        <path
                d="M2.65625 3.34375V12.6562H8V14H2.65625C2.30208 14 1.98958 13.8646 1.71875 13.5938C1.46875 13.3229 1.34375 13.0104 1.34375 12.6562V3.34375C1.34375 2.98958 1.46875 2.67708 1.71875 2.40625C1.98958 2.13542 2.30208 2 2.65625 2H8V3.34375H2.65625ZM11.3438 4.65625L14.6562 8L11.3438 11.3438L10.4062 10.375L12.125 8.65625H5.34375V7.34375H12.125L10.4062 5.59375L11.3438 4.65625Z"
                fill="currentColor"/>
    </symbol>
    <symbol id="upload" viewBox="0 0 18 14">
        <path
                d="M10.5117 7.73828H12.7617L9 4.01172L5.23828 7.73828H7.48828V10.7617H10.5117V7.73828ZM14.5195 5.52344C15.4805 5.59375 16.3008 5.99219 16.9805 6.71875C17.6602 7.42188 18 8.26562 18 9.25C18 10.2812 17.625 11.1719 16.875 11.9219C16.1484 12.6484 15.2695 13.0117 14.2383 13.0117H4.5C3.25781 13.0117 2.19141 12.5781 1.30078 11.7109C0.433594 10.8203 0 9.75391 0 8.51172C0 7.41016 0.386719 6.42578 1.16016 5.55859C1.95703 4.66797 2.90625 4.16406 4.00781 4.04688C4.5 3.13281 5.19141 2.39453 6.08203 1.83203C6.97266 1.26953 7.94531 0.988281 9 0.988281C10.2656 0.988281 11.4375 1.43359 12.5156 2.32422C13.6172 3.21484 14.2852 4.28125 14.5195 5.52344Z"
                fill="currentColor"/>
    </symbol>
    <symbol id="emojis" viewBox="0 0 16 16">
        <path
                d="M10.0625 11.0312C9.45833 11.4479 8.77083 11.6562 8 11.6562C7.22917 11.6562 6.53125 11.4479 5.90625 11.0312C5.30208 10.5938 4.86458 10.0312 4.59375 9.34375H5.6875C6.20833 10.2188 6.97917 10.6562 8 10.6562C9.02083 10.6562 9.79167 10.2188 10.3125 9.34375H11.4062C11.1354 10.0312 10.6875 10.5938 10.0625 11.0312ZM4.21875 11.7812C5.28125 12.8229 6.54167 13.3438 8 13.3438C9.45833 13.3438 10.7083 12.8229 11.75 11.7812C12.8125 10.7188 13.3438 9.45833 13.3438 8C13.3438 6.54167 12.8125 5.29167 11.75 4.25C10.7083 3.1875 9.45833 2.65625 8 2.65625C6.54167 2.65625 5.28125 3.1875 4.21875 4.25C3.17708 5.29167 2.65625 6.54167 2.65625 8C2.65625 9.45833 3.17708 10.7188 4.21875 11.7812ZM3.28125 3.3125C4.59375 2 6.16667 1.34375 8 1.34375C9.83333 1.34375 11.3958 2 12.6875 3.3125C14 4.60417 14.6562 6.16667 14.6562 8C14.6562 9.83333 14 11.4062 12.6875 12.7188C11.3958 14.0104 9.83333 14.6562 8 14.6562C6.16667 14.6562 4.59375 14.0104 3.28125 12.7188C1.98958 11.4062 1.34375 9.83333 1.34375 8C1.34375 6.16667 1.98958 4.60417 3.28125 3.3125ZM6.34375 7.0625C6.15625 7.25 5.92708 7.34375 5.65625 7.34375C5.38542 7.34375 5.14583 7.25 4.9375 7.0625C4.75 6.85417 4.65625 6.61458 4.65625 6.34375C4.65625 6.07292 4.75 5.84375 4.9375 5.65625C5.14583 5.44792 5.38542 5.34375 5.65625 5.34375C5.92708 5.34375 6.15625 5.44792 6.34375 5.65625C6.55208 5.84375 6.65625 6.07292 6.65625 6.34375C6.65625 6.61458 6.55208 6.85417 6.34375 7.0625ZM11.0312 7.0625C10.8438 7.25 10.6146 7.34375 10.3438 7.34375C10.0729 7.34375 9.83333 7.25 9.625 7.0625C9.4375 6.85417 9.34375 6.61458 9.34375 6.34375C9.34375 6.07292 9.4375 5.84375 9.625 5.65625C9.83333 5.44792 10.0729 5.34375 10.3438 5.34375C10.6146 5.34375 10.8438 5.44792 11.0312 5.65625C11.2396 5.84375 11.3438 6.07292 11.3438 6.34375C11.3438 6.61458 11.2396 6.85417 11.0312 7.0625Z"
                fill="currentColor"/>
    </symbol>
    <symbol id="send" viewBox="0 0 16 16">
        <path d="M1.34375 14V9.34375L11.3438 8L1.34375 6.65625V2L15.3438 8L1.34375 14Z" fill="currentColor"/>
    </symbol>
    <symbol id="comments" viewBox="0 0 16 16">
        <path
                d="M11.8438 8C11.8438 8.1875 11.7708 8.34375 11.625 8.46875C11.5 8.59375 11.3438 8.65625 11.1562 8.65625H4.5L1.84375 11.3438V2C1.84375 1.8125 1.90625 1.65625 2.03125 1.53125C2.15625 1.40625 2.3125 1.34375 2.5 1.34375H11.1562C11.3438 1.34375 11.5 1.40625 11.625 1.53125C11.7708 1.65625 11.8438 1.8125 11.8438 2V8ZM14.5 4C14.6875 4 14.8438 4.0625 14.9688 4.1875C15.0938 4.3125 15.1562 4.46875 15.1562 4.65625V14.6562L12.5 12H5.15625C4.96875 12 4.8125 11.9375 4.6875 11.8125C4.5625 11.6875 4.5 11.5312 4.5 11.3438V10H13.1562V4H14.5Z"
                fill="currentColor"/>
    </symbol>
    <symbol id="dots" viewBox="0 0 14 14">
        <path
                d="M7.0625 7.0625C7.33333 6.79167 7.64583 6.65625 8 6.65625C8.35417 6.65625 8.66667 6.79167 8.9375 7.0625C9.20833 7.33333 9.34375 7.64583 9.34375 8C9.34375 8.35417 9.20833 8.66667 8.9375 8.9375C8.66667 9.20833 8.35417 9.34375 8 9.34375C7.64583 9.34375 7.33333 9.20833 7.0625 8.9375C6.79167 8.66667 6.65625 8.35417 6.65625 8C6.65625 7.64583 6.79167 7.33333 7.0625 7.0625ZM11.0625 7.0625C11.3333 6.79167 11.6458 6.65625 12 6.65625C12.3542 6.65625 12.6667 6.79167 12.9375 7.0625C13.2083 7.33333 13.3438 7.64583 13.3438 8C13.3438 8.35417 13.2083 8.66667 12.9375 8.9375C12.6667 9.20833 12.3542 9.34375 12 9.34375C11.6458 9.34375 11.3333 9.20833 11.0625 8.9375C10.7917 8.66667 10.6562 8.35417 10.6562 8C10.6562 7.64583 10.7917 7.33333 11.0625 7.0625ZM3.0625 7.0625C3.33333 6.79167 3.64583 6.65625 4 6.65625C4.35417 6.65625 4.66667 6.79167 4.9375 7.0625C5.20833 7.33333 5.34375 7.64583 5.34375 8C5.34375 8.35417 5.20833 8.66667 4.9375 8.9375C4.66667 9.20833 4.35417 9.34375 4 9.34375C3.64583 9.34375 3.33333 9.20833 3.0625 8.9375C2.79167 8.66667 2.65625 8.35417 2.65625 8C2.65625 7.64583 2.79167 7.33333 3.0625 7.0625Z"
                fill="currentColor"/>
    </symbol>
    <symbol id="subscribe" viewBox="0 0 16 16">
        <path
                d="M6.46875 10.0938C7.69792 9.59375 8.875 9.34375 10 9.34375C11.125 9.34375 12.2917 9.59375 13.5 10.0938C14.7292 10.5729 15.3438 11.2083 15.3438 12V13.3438H4.65625V12C4.65625 11.2083 5.26042 10.5729 6.46875 10.0938ZM4 6.65625H6V8H4V10H2.65625V8H0.65625V6.65625H2.65625V4.65625H4V6.65625ZM11.875 7.21875C11.3542 7.73958 10.7292 8 10 8C9.27083 8 8.64583 7.73958 8.125 7.21875C7.60417 6.69792 7.34375 6.07292 7.34375 5.34375C7.34375 4.61458 7.60417 3.98958 8.125 3.46875C8.64583 2.92708 9.27083 2.65625 10 2.65625C10.7292 2.65625 11.3542 2.92708 11.875 3.46875C12.3958 3.98958 12.6562 4.61458 12.6562 5.34375C12.6562 6.07292 12.3958 6.69792 11.875 7.21875Z"
                fill="currentColor"/>
    </symbol>
    <symbol id="unsubscribe" viewBox="0 0 16 16">
        <path
                d="M6.46875 10.0938C7.69792 9.59375 8.875 9.34375 10 9.34375C11.125 9.34375 12.2917 9.59375 13.5 10.0938C14.7292 10.5729 15.3438 11.2083 15.3438 12V13.3438H4.65625V12C4.65625 11.2083 5.26042 10.5729 6.46875 10.0938Z M0.65625 6.65625H6V8H0.65625V6.65625Z M11.875 7.21875C11.3542 7.73958 10.7292 8 10 8C9.27083 8 8.64583 7.73958 8.125 7.21875C7.60417 6.69792 7.34375 6.07292 7.34375 5.34375C7.34375 4.61458 7.60417 3.98958 8.125 3.46875C8.64583 2.92708 9.27083 2.65625 10 2.65625C10.7292 2.65625 11.3542 2.92708 11.875 3.46875C12.3958 3.98958 12.6562 4.61458 12.6562 5.34375C12.6562 6.07292 12.3958 6.69792 11.875 7.21875Z"
                fill="currentColor"/>
    </symbol>
    <symbol id="cross" viewBox="0 0 10 10">
        <path
                d="M9.65625 1.28125L5.9375 5L9.65625 8.71875L8.71875 9.65625L5 5.9375L1.28125 9.65625L0.34375 8.71875L4.0625 5L0.34375 1.28125L1.28125 0.34375L5 4.0625L8.71875 0.34375L9.65625 1.28125Z"
                fill="currentColor"/>
    </symbol>
    <symbol id="community" viewBox="0 0 16 16">
        <path
                d="M8 8.5C8.54167 8.5 9.05208 8.5625 9.53125 8.6875C10.0104 8.79167 10.4375 8.92708 10.8125 9.09375C11.1875 9.26042 11.4792 9.51042 11.6875 9.84375C11.8958 10.1771 12 10.5312 12 10.9062V12H4V10.9375C4 10.5417 4.10417 10.1771 4.3125 9.84375C4.52083 9.51042 4.8125 9.26042 5.1875 9.09375C5.5625 8.92708 5.98958 8.79167 6.46875 8.6875C6.94792 8.5625 7.45833 8.5 8 8.5ZM2.65625 8.65625C3.03125 8.65625 3.34375 8.53125 3.59375 8.28125C3.86458 8.01042 4 7.69792 4 7.34375C4 6.96875 3.86458 6.65625 3.59375 6.40625C3.34375 6.13542 3.03125 6 2.65625 6C2.30208 6 1.98958 6.13542 1.71875 6.40625C1.46875 6.65625 1.34375 6.96875 1.34375 7.34375C1.34375 7.69792 1.46875 8.01042 1.71875 8.28125C1.98958 8.53125 2.30208 8.65625 2.65625 8.65625ZM3.40625 9.40625C3.30208 9.38542 3.1875 9.375 3.0625 9.375C2.9375 9.35417 2.80208 9.34375 2.65625 9.34375C2.32292 9.34375 2 9.375 1.6875 9.4375C1.39583 9.5 1.10417 9.59375 0.8125 9.71875C0.5625 9.82292 0.364583 9.98958 0.21875 10.2188C0.0729167 10.4479 0 10.6979 0 10.9688V12H3V10.9375C3 10.3958 3.13542 9.88542 3.40625 9.40625ZM13.3438 8.65625C13.6979 8.65625 14 8.53125 14.25 8.28125C14.5208 8.01042 14.6562 7.69792 14.6562 7.34375C14.6562 6.96875 14.5208 6.65625 14.25 6.40625C14 6.13542 13.6979 6 13.3438 6C12.9688 6 12.6458 6.13542 12.375 6.40625C12.125 6.65625 12 6.96875 12 7.34375C12 7.69792 12.125 8.01042 12.375 8.28125C12.6458 8.53125 12.9688 8.65625 13.3438 8.65625ZM16 10.9688C16 10.6979 15.9271 10.4479 15.7812 10.2188C15.6354 9.98958 15.4375 9.82292 15.1875 9.71875C14.8958 9.59375 14.5938 9.5 14.2812 9.4375C13.9896 9.375 13.6771 9.34375 13.3438 9.34375C13.1979 9.34375 13.0625 9.35417 12.9375 9.375C12.8125 9.375 12.6979 9.38542 12.5938 9.40625C12.8646 9.88542 13 10.3958 13 10.9375V12H16V10.9688ZM8 4C8.375 4 8.70833 4.09375 9 4.28125C9.3125 4.44792 9.55208 4.6875 9.71875 5C9.90625 5.29167 10 5.625 10 6C10 6.375 9.90625 6.71875 9.71875 7.03125C9.55208 7.32292 9.3125 7.5625 9 7.75C8.70833 7.91667 8.375 8 8 8C7.625 8 7.28125 7.91667 6.96875 7.75C6.67708 7.5625 6.4375 7.32292 6.25 7.03125C6.08333 6.71875 6 6.375 6 6C6 5.625 6.08333 5.29167 6.25 5C6.4375 4.6875 6.67708 4.44792 6.96875 4.28125C7.28125 4.09375 7.625 4 8 4Z"
                fill="currentColor"/>
    </symbol>
    <symbol id="selected-arrow" viewBox="0 0 16 16">
        <path
                d="M6.48828 11.7617L13.2383 5.01172L12.1836 3.92188L6.48828 9.61719L3.81641 6.94531L2.76172 8L6.48828 11.7617ZM2.69141 2.72656C4.16797 1.25 5.9375 0.511719 8 0.511719C10.0625 0.511719 11.8203 1.25 13.2734 2.72656C14.75 4.17969 15.4883 5.9375 15.4883 8C15.4883 10.0625 14.75 11.832 13.2734 13.3086C11.8203 14.7617 10.0625 15.4883 8 15.4883C5.9375 15.4883 4.16797 14.7617 2.69141 13.3086C1.23828 11.832 0.511719 10.0625 0.511719 8C0.511719 5.9375 1.23828 4.17969 2.69141 2.72656Z"
                fill="currentColor"/>
    </symbol>
    <symbol id="edit-pen" viewBox="0 0 14 14">
        <path
                d="M13.2891 3.02344L11.918 4.39453L9.10547 1.58203L10.4766 0.210938C10.6172 0.0703125 10.793 0 11.0039 0C11.2148 0 11.3906 0.0703125 11.5312 0.210938L13.2891 1.96875C13.4297 2.10938 13.5 2.28516 13.5 2.49609C13.5 2.70703 13.4297 2.88281 13.2891 3.02344ZM0 10.6875L8.29688 2.39062L11.1094 5.20312L2.8125 13.5H0V10.6875Z"
                fill="currentColor"/>
    </symbol>
    <symbol id="delete" viewBox="0 0 16 16">
        <path
                d="M10.3438 2.65625H12.6562V4H3.34375V2.65625H5.65625L6.34375 2H9.65625L10.3438 2.65625ZM5.34375 6V12.6562H10.6562V6H5.34375ZM4 12.6562V4.65625H12V12.6562C12 13.0104 11.8646 13.3229 11.5938 13.5938C11.3229 13.8646 11.0104 14 10.6562 14H5.34375C4.98958 14 4.67708 13.8646 4.40625 13.5938C4.13542 13.3229 4 13.0104 4 12.6562Z"
                fill="currentColor"/>
    </symbol>
    <symbol id="password-eye" viewBox="0 0 21 20">
        <path d="M10.3828 7.5H10.5C11.1771 7.5 11.763 7.7474 12.2578 8.24219C12.7526 8.73698 13 9.32292 13 10V10.1562L10.3828 7.5ZM6.78906 8.16406C6.47656 8.78906 6.32031 9.40104 6.32031 10C6.32031 11.1458 6.72396 12.1354 7.53125 12.9688C8.36458 13.776 9.35417 14.1797 10.5 14.1797C11.099 14.1797 11.7109 14.0234 12.3359 13.7109L11.0469 12.4219C10.8385 12.474 10.6562 12.5 10.5 12.5C9.82292 12.5 9.23698 12.2526 8.74219 11.7578C8.2474 11.263 8 10.6771 8 10C8 9.84375 8.02604 9.66146 8.07812 9.45312L6.78906 8.16406ZM2.17969 3.55469L3.23438 2.5L18 17.2656L16.9453 18.3203C16.8151 18.1901 16.3984 17.7865 15.6953 17.1094C15.0182 16.4323 14.4974 15.9115 14.1328 15.5469C13.013 16.0156 11.8021 16.25 10.5 16.25C8.44271 16.25 6.58073 15.6771 4.91406 14.5312C3.2474 13.3854 2.04948 11.875 1.32031 10C1.60677 9.32292 2.04948 8.58073 2.64844 7.77344C3.27344 6.9401 3.8724 6.30208 4.44531 5.85938C4.13281 5.54688 3.6901 5.10417 3.11719 4.53125C2.57031 3.95833 2.25781 3.63281 2.17969 3.55469ZM10.5 5.82031C9.97917 5.82031 9.47135 5.92448 8.97656 6.13281L7.17969 4.33594C8.19531 3.94531 9.30208 3.75 10.5 3.75C12.5573 3.75 14.4062 4.32292 16.0469 5.46875C17.7135 6.61458 18.9115 8.125 19.6406 10C19.0156 11.5365 18.0651 12.8516 16.7891 13.9453L14.3672 11.5234C14.5755 11.0286 14.6797 10.5208 14.6797 10C14.6797 8.85417 14.263 7.8776 13.4297 7.07031C12.6224 6.23698 11.6458 5.82031 10.5 5.82031Z"
              fill="currentColor" fill-opacity="0.75"/>
    </symbol>
    <symbol id="telegram-link" viewBox="0 0 20 20">
        <path d="M10 1.67969C11.1458 1.67969 12.2135 1.90104 13.2031 2.34375C14.2188 2.76042 15.1042 3.35938 15.8594 4.14062C16.6406 4.89583 17.2396 5.78125 17.6562 6.79688C18.099 7.78646 18.3203 8.85417 18.3203 10C18.3203 11.1458 18.099 12.2266 17.6562 13.2422C17.2396 14.2318 16.6406 15.1172 15.8594 15.8984C15.1042 16.6536 14.2188 17.2526 13.2031 17.6953C12.2135 18.112 11.1458 18.3203 10 18.3203C8.85417 18.3203 7.77344 18.112 6.75781 17.6953C5.76823 17.2526 4.88281 16.6536 4.10156 15.8984C3.34635 15.1172 2.7474 14.2318 2.30469 13.2422C1.88802 12.2266 1.67969 11.1458 1.67969 10C1.67969 8.85417 1.88802 7.78646 2.30469 6.79688C2.7474 5.78125 3.34635 4.89583 4.10156 4.14062C4.88281 3.35938 5.76823 2.76042 6.75781 2.34375C7.77344 1.90104 8.85417 1.67969 10 1.67969ZM13.8672 7.34375C13.8672 7.26562 13.8672 7.20052 13.8672 7.14844C13.8672 7.09635 13.8672 7.05729 13.8672 7.03125C13.8672 6.92708 13.8281 6.84896 13.75 6.79688C13.6979 6.74479 13.6328 6.71875 13.5547 6.71875C13.5026 6.69271 13.4635 6.67969 13.4375 6.67969C13.3333 6.67969 13.1771 6.71875 12.9688 6.79688C12.7865 6.84896 12.487 6.95312 12.0703 7.10938C11.6797 7.26562 11.0938 7.5 10.3125 7.8125C9.92188 7.99479 9.3099 8.26823 8.47656 8.63281C7.66927 8.97135 6.66667 9.40104 5.46875 9.92188C5.07812 10.0781 4.86979 10.2344 4.84375 10.3906C4.81771 10.5208 4.89583 10.625 5.07812 10.7031C5.26042 10.7552 5.48177 10.8333 5.74219 10.9375C5.95052 10.9896 6.17188 11.0547 6.40625 11.1328C6.66667 11.1849 6.875 11.224 7.03125 11.25C7.29167 11.25 7.59115 11.1328 7.92969 10.8984C10.2214 9.36198 11.3932 8.59375 11.4453 8.59375C11.5495 8.56771 11.6146 8.56771 11.6406 8.59375C11.6667 8.64583 11.6797 8.69792 11.6797 8.75C11.6536 8.77604 11.5625 8.86719 11.4062 9.02344C11.276 9.17969 11.0938 9.36198 10.8594 9.57031C10.651 9.77865 10.4297 9.98698 10.1953 10.1953C9.98698 10.4036 9.80469 10.5859 9.64844 10.7422C9.49219 10.8724 9.40104 10.9505 9.375 10.9766C9.21875 11.1328 9.07552 11.2891 8.94531 11.4453C8.8151 11.5755 8.75 11.7057 8.75 11.8359C8.77604 11.9661 8.91927 12.1224 9.17969 12.3047C9.54427 12.5391 9.85677 12.7474 10.1172 12.9297C10.3776 13.112 10.6901 13.3203 11.0547 13.5547C11.2891 13.7109 11.4974 13.8672 11.6797 14.0234C11.888 14.1536 12.1094 14.2057 12.3438 14.1797C12.474 14.1797 12.5911 14.1146 12.6953 13.9844C12.7995 13.8542 12.8776 13.6328 12.9297 13.3203C13.0078 12.9557 13.0859 12.5 13.1641 11.9531C13.2682 11.4062 13.3594 10.8464 13.4375 10.2734C13.5417 9.67448 13.6328 9.11458 13.7109 8.59375C13.7891 8.07292 13.8411 7.65625 13.8672 7.34375Z"
              fill="currentColor"/>
    </symbol>
    <symbol id="plus" viewBox="0 0 14 14">
        <path d="M10 7.3125V6H7.3125V3.3125H6V6H3.3125V7.3125H6V10H7.3125V7.3125H10ZM1.9375 1.96875C3.25 0.65625 4.82292 0 6.65625 0C8.48958 0 10.0521 0.65625 11.3438 1.96875C12.6562 3.26042 13.3125 4.82292 13.3125 6.65625C13.3125 8.48958 12.6562 10.0625 11.3438 11.375C10.0521 12.6667 8.48958 13.3125 6.65625 13.3125C4.82292 13.3125 3.25 12.6667 1.9375 11.375C0.645833 10.0625 0 8.48958 0 6.65625C0 4.82292 0.645833 3.26042 1.9375 1.96875Z"
              fill="currentColor"/>
    </symbol>
</svg>
